<svg width="23" height="22" viewBox="0 0 23 22" fill="none" xmlns="http://www.w3.org/2000/svg">
<g id="Logomark">
<path id="Shape" d="M18.6533 4.58157C18.4372 4.36546 18.221 4.14935 18.0049 3.93324C17.3566 3.24169 16.665 2.55014 15.8006 2.11792C14.8065 1.59925 13.726 1.72891 12.6454 1.72891C11.003 1.72891 6.89687 1.72891 4.47644 1.72891L6.11888 3.93324C9.1012 3.93324 13.7692 3.93324 15.9303 3.93324C16.8379 3.93324 17.6159 4.10613 18.3507 4.58157C18.4804 4.62479 18.61 4.62479 18.6533 4.58157Z" fill="#66C61C"/>
<path id="Shape_2" d="M20.4686 8.12582C20.2525 7.90971 20.0364 7.6936 19.8203 7.47749C19.172 6.78593 18.4804 6.09438 17.616 5.66216C16.6219 5.1435 15.5413 5.27317 14.4608 5.27317C13.0344 5.27317 9.6199 5.27317 7.19946 5.27317L8.8419 7.47749C11.781 7.47749 15.8006 7.47749 17.7889 7.47749C18.6965 7.47749 19.4745 7.65037 20.2093 8.12582C20.2957 8.16904 20.3822 8.16904 20.4686 8.12582Z" fill="#4CA30D"/>
<path id="Shape_3" d="M22.5 11.5835C22.2839 11.3674 22.0678 11.1512 21.8517 10.9351C21.2033 10.2436 20.5118 9.55202 19.6473 9.1198C18.6532 8.60114 17.5727 8.73081 16.4921 8.73081C15.1522 8.73081 12.2131 8.73081 9.83594 8.73081L11.4784 10.9351C14.331 10.9351 17.9617 10.9351 19.777 10.9351C20.6847 10.9351 21.4627 11.108 22.1974 11.5835C22.3271 11.6267 22.4135 11.6699 22.5 11.5835Z" fill="#3B7C0F"/>
<path id="Shape_4" d="M4.30359 17.4184C4.5197 17.6345 4.73581 17.8507 4.95192 18.0668C5.60025 18.7583 6.2918 19.4499 7.15624 19.8821C8.15034 20.4007 9.2309 20.2711 10.3114 20.2711H18.4804L16.838 18.0668C13.8557 18.0668 9.18768 18.0668 7.02658 18.0668C6.11891 18.0668 5.34092 17.8939 4.60614 17.4184C4.47648 17.3752 4.39003 17.3752 4.30359 17.4184Z" fill="#66C61C"/>
<path id="Shape_5" d="M2.48828 13.8743C2.70439 14.0904 2.9205 14.3066 3.13661 14.5227C3.78494 15.2142 4.47649 15.9058 5.34093 16.338C6.33504 16.8567 7.41559 16.727 8.49614 16.727H15.7574L14.115 14.5227C11.1759 14.5227 7.15626 14.5227 5.16804 14.5227C4.26038 14.5227 3.48238 14.3498 2.74761 13.8743C2.66117 13.8311 2.57473 13.8311 2.48828 13.8743Z" fill="#4CA30D"/>
<path id="Shape_6" d="M0.5 10.3732C0.71611 10.5893 0.93222 10.8055 1.14833 11.0216C1.79666 11.7131 2.48822 12.4047 3.35266 12.8369C4.34676 13.3556 5.42731 13.2259 6.50786 13.2259H13.1641L11.5216 11.0216C8.66896 11.0216 5.03831 11.0216 3.22299 11.0216C2.31533 11.0216 1.53733 10.8487 0.802553 10.3732C0.672887 10.33 0.586444 10.33 0.5 10.3732Z" fill="#3B7C0F"/>
</g>
</svg>
