<svg width="58" height="12" viewBox="0 0 58 12" fill="none" xmlns="http://www.w3.org/2000/svg">
<g id="Logotype">
<path d="M0.689941 10.9546V9.21457H2.06994V2.19457H0.689941V0.454568H6.08994C6.72994 0.454568 7.28494 0.564568 7.75494 0.784568C8.23494 0.994568 8.60494 1.29957 8.86494 1.69957C9.13494 2.08957 9.26994 2.55957 9.26994 3.10957V3.25957C9.26994 3.73957 9.17994 4.13457 8.99994 4.44457C8.81994 4.74457 8.60494 4.97957 8.35494 5.14957C8.11494 5.30957 7.88494 5.42457 7.66494 5.49457V5.76457C7.88494 5.82457 8.12494 5.93957 8.38494 6.10957C8.64494 6.26957 8.86494 6.50457 9.04494 6.81457C9.23494 7.12457 9.32994 7.52957 9.32994 8.02957V8.17957C9.32994 8.75957 9.19494 9.25957 8.92494 9.67957C8.65494 10.0896 8.27994 10.4046 7.79994 10.6246C7.32994 10.8446 6.77994 10.9546 6.14994 10.9546H0.689941ZM4.04994 9.15457H5.90994C6.33994 9.15457 6.68494 9.04957 6.94494 8.83957C7.21494 8.62957 7.34994 8.32957 7.34994 7.93957V7.78957C7.34994 7.39957 7.21994 7.09957 6.95994 6.88957C6.69994 6.67957 6.34994 6.57457 5.90994 6.57457H4.04994V9.15457ZM4.04994 4.77457H5.87994C6.28994 4.77457 6.62494 4.66957 6.88494 4.45957C7.15494 4.24957 7.28994 3.95957 7.28994 3.58957V3.43957C7.28994 3.05957 7.15994 2.76957 6.89994 2.56957C6.63994 2.35957 6.29994 2.25457 5.87994 2.25457H4.04994V4.77457Z" fill="#1C1C1C"/>
<path d="M13.8009 11.1646C13.0609 11.1646 12.3959 11.0146 11.8059 10.7146C11.2159 10.4146 10.7509 9.97957 10.4109 9.40957C10.0709 8.83957 9.90088 8.15457 9.90088 7.35457V7.11457C9.90088 6.31457 10.0709 5.62957 10.4109 5.05957C10.7509 4.48957 11.2159 4.05457 11.8059 3.75457C12.3959 3.45457 13.0609 3.30457 13.8009 3.30457C14.5409 3.30457 15.2059 3.45457 15.7959 3.75457C16.3859 4.05457 16.8509 4.48957 17.1909 5.05957C17.5309 5.62957 17.7009 6.31457 17.7009 7.11457V7.35457C17.7009 8.15457 17.5309 8.83957 17.1909 9.40957C16.8509 9.97957 16.3859 10.4146 15.7959 10.7146C15.2059 11.0146 14.5409 11.1646 13.8009 11.1646ZM13.8009 9.48457C14.3809 9.48457 14.8609 9.29957 15.2409 8.92957C15.6209 8.54957 15.8109 8.00957 15.8109 7.30957V7.15957C15.8109 6.45957 15.6209 5.92457 15.2409 5.55457C14.8709 5.17457 14.3909 4.98457 13.8009 4.98457C13.2209 4.98457 12.7409 5.17457 12.3609 5.55457C11.9809 5.92457 11.7909 6.45957 11.7909 7.15957V7.30957C11.7909 8.00957 11.9809 8.54957 12.3609 8.92957C12.7409 9.29957 13.2209 9.48457 13.8009 9.48457Z" fill="#1C1C1C"/>
<path d="M18.6954 10.9546V0.454568H20.5854V10.9546H18.6954Z" fill="#1C1C1C"/>
<path d="M24.7798 10.9546C24.2898 10.9546 23.8898 10.8046 23.5798 10.5046C23.2798 10.1946 23.1298 9.78457 23.1298 9.27457V5.07457H21.2698V3.51457H23.1298V1.20457H25.0198V3.51457H27.0598V5.07457H25.0198V8.94457C25.0198 9.24457 25.1598 9.39457 25.4398 9.39457H26.8798V10.9546H24.7798Z" fill="#1C1C1C"/>
<path d="M31.1106 11.1646C30.1406 11.1646 29.3456 10.9546 28.7256 10.5346C28.1056 10.1146 27.7306 9.51457 27.6006 8.73457L29.3406 8.28457C29.4106 8.63457 29.5256 8.90957 29.6856 9.10957C29.8556 9.30957 30.0606 9.45457 30.3006 9.54457C30.5506 9.62457 30.8206 9.66457 31.1106 9.66457C31.5506 9.66457 31.8756 9.58957 32.0856 9.43957C32.2956 9.27957 32.4006 9.08457 32.4006 8.85457C32.4006 8.62457 32.3006 8.44957 32.1006 8.32957C31.9006 8.19957 31.5806 8.09457 31.1406 8.01457L30.7206 7.93957C30.2006 7.83957 29.7256 7.70457 29.2956 7.53457C28.8656 7.35457 28.5206 7.10957 28.2606 6.79957C28.0006 6.48957 27.8706 6.08957 27.8706 5.59957C27.8706 4.85957 28.1406 4.29457 28.6806 3.90457C29.2206 3.50457 29.9306 3.30457 30.8106 3.30457C31.6406 3.30457 32.3306 3.48957 32.8806 3.85957C33.4306 4.22957 33.7906 4.71457 33.9606 5.31457L32.2056 5.85457C32.1256 5.47457 31.9606 5.20457 31.7106 5.04457C31.4706 4.88457 31.1706 4.80457 30.8106 4.80457C30.4506 4.80457 30.1756 4.86957 29.9856 4.99957C29.7956 5.11957 29.7006 5.28957 29.7006 5.50957C29.7006 5.74957 29.8006 5.92957 30.0006 6.04957C30.2006 6.15957 30.4706 6.24457 30.8106 6.30457L31.2306 6.37957C31.7906 6.47957 32.2956 6.61457 32.7456 6.78457C33.2056 6.94457 33.5656 7.17957 33.8256 7.48957C34.0956 7.78957 34.2306 8.19957 34.2306 8.71957C34.2306 9.49957 33.9456 10.1046 33.3756 10.5346C32.8156 10.9546 32.0606 11.1646 31.1106 11.1646Z" fill="#1C1C1C"/>
<path d="M35.1369 10.9546V0.454568H37.0269V4.42957H37.2969C37.3769 4.26957 37.5019 4.10957 37.6719 3.94957C37.8419 3.78957 38.0669 3.65957 38.3469 3.55957C38.6369 3.44957 39.0019 3.39457 39.4419 3.39457C40.0219 3.39457 40.5269 3.52957 40.9569 3.79957C41.3969 4.05957 41.7369 4.42457 41.9769 4.89457C42.2169 5.35457 42.3369 5.89457 42.3369 6.51457V10.9546H40.4469V6.66457C40.4469 6.10457 40.3069 5.68457 40.0269 5.40457C39.7569 5.12457 39.3669 4.98457 38.8569 4.98457C38.2769 4.98457 37.8269 5.17957 37.5069 5.56957C37.1869 5.94957 37.0269 6.48457 37.0269 7.17457V10.9546H35.1369Z" fill="#1C1C1C"/>
<path d="M43.63 10.9546V3.51457H45.52V10.9546H43.63ZM44.575 2.64457C44.235 2.64457 43.945 2.53457 43.705 2.31457C43.475 2.09457 43.36 1.80457 43.36 1.44457C43.36 1.08457 43.475 0.794568 43.705 0.574568C43.945 0.354568 44.235 0.244568 44.575 0.244568C44.925 0.244568 45.215 0.354568 45.445 0.574568C45.675 0.794568 45.79 1.08457 45.79 1.44457C45.79 1.80457 45.675 2.09457 45.445 2.31457C45.215 2.53457 44.925 2.64457 44.575 2.64457Z" fill="#1C1C1C"/>
<path d="M48.0944 10.9546V5.07457H46.2044V3.51457H48.0944V2.13457C48.0944 1.62457 48.2444 1.21957 48.5444 0.919568C48.8544 0.609568 49.2544 0.454568 49.7444 0.454568H51.6944V2.01457H50.4044C50.1244 2.01457 49.9844 2.16457 49.9844 2.46457V3.51457H51.9344V5.07457H49.9844V10.9546H48.0944Z" fill="#1C1C1C"/>
<path d="M55.3511 10.9546C54.8611 10.9546 54.4611 10.8046 54.1511 10.5046C53.8511 10.1946 53.7011 9.78457 53.7011 9.27457V5.07457H51.8411V3.51457H53.7011V1.20457H55.5911V3.51457H57.6311V5.07457H55.5911V8.94457C55.5911 9.24457 55.7311 9.39457 56.0111 9.39457H57.4511V10.9546H55.3511Z" fill="#1C1C1C"/>
</g>
</svg>
