<svg width="115" height="23" viewBox="0 0 115 23" fill="none" xmlns="http://www.w3.org/2000/svg">
<g id="Logotype">
<path d="M0.379883 21.9092V18.4292H3.13988V4.3892H0.379883V0.909197H11.1799C12.4599 0.909197 13.5699 1.1292 14.5099 1.5692C15.4699 1.9892 16.2099 2.5992 16.7299 3.3992C17.2699 4.1792 17.5399 5.1192 17.5399 6.2192V6.5192C17.5399 7.4792 17.3599 8.2692 16.9999 8.8892C16.6399 9.4892 16.2099 9.9592 15.7099 10.2992C15.2299 10.6192 14.7699 10.8492 14.3299 10.9892V11.5292C14.7699 11.6492 15.2499 11.8792 15.7699 12.2192C16.2899 12.5392 16.7299 13.0092 17.0899 13.6292C17.4699 14.2492 17.6599 15.0592 17.6599 16.0592V16.3592C17.6599 17.5192 17.3899 18.5192 16.8499 19.3592C16.3099 20.1792 15.5599 20.8092 14.5999 21.2492C13.6599 21.6892 12.5599 21.9092 11.2999 21.9092H0.379883ZM7.09988 18.3092H10.8199C11.6799 18.3092 12.3699 18.0992 12.8899 17.6792C13.4299 17.2592 13.6999 16.6592 13.6999 15.8792V15.5792C13.6999 14.7992 13.4399 14.1992 12.9199 13.7792C12.3999 13.3592 11.6999 13.1492 10.8199 13.1492H7.09988V18.3092ZM7.09988 9.5492H10.7599C11.5799 9.5492 12.2499 9.3392 12.7699 8.9192C13.3099 8.4992 13.5799 7.9192 13.5799 7.1792V6.8792C13.5799 6.1192 13.3199 5.5392 12.7999 5.1392C12.2799 4.7192 11.5999 4.5092 10.7599 4.5092H7.09988V9.5492Z" fill="white"/>
<path d="M26.6018 22.3292C25.1218 22.3292 23.7918 22.0292 22.6118 21.4292C21.4318 20.8292 20.5018 19.9592 19.8218 18.8192C19.1418 17.6792 18.8018 16.3092 18.8018 14.7092V14.2292C18.8018 12.6292 19.1418 11.2592 19.8218 10.1192C20.5018 8.9792 21.4318 8.1092 22.6118 7.5092C23.7918 6.9092 25.1218 6.6092 26.6018 6.6092C28.0818 6.6092 29.4118 6.9092 30.5918 7.5092C31.7718 8.1092 32.7018 8.9792 33.3818 10.1192C34.0618 11.2592 34.4018 12.6292 34.4018 14.2292V14.7092C34.4018 16.3092 34.0618 17.6792 33.3818 18.8192C32.7018 19.9592 31.7718 20.8292 30.5918 21.4292C29.4118 22.0292 28.0818 22.3292 26.6018 22.3292ZM26.6018 18.9692C27.7618 18.9692 28.7218 18.5992 29.4818 17.8592C30.2418 17.0992 30.6218 16.0192 30.6218 14.6192V14.3192C30.6218 12.9192 30.2418 11.8492 29.4818 11.1092C28.7418 10.3492 27.7818 9.9692 26.6018 9.9692C25.4418 9.9692 24.4818 10.3492 23.7218 11.1092C22.9618 11.8492 22.5818 12.9192 22.5818 14.3192V14.6192C22.5818 16.0192 22.9618 17.0992 23.7218 17.8592C24.4818 18.5992 25.4418 18.9692 26.6018 18.9692Z" fill="white"/>
<path d="M36.3909 21.9092V0.909197H40.1709V21.9092H36.3909Z" fill="white"/>
<path d="M48.5596 21.9092C47.5796 21.9092 46.7796 21.6092 46.1596 21.0092C45.5597 20.3892 45.2596 19.5692 45.2596 18.5492V10.1492H41.5396V7.0292H45.2596V2.4092H49.0396V7.0292H53.1196V10.1492H49.0396V17.8892C49.0396 18.4892 49.3196 18.7892 49.8796 18.7892H52.7596V21.9092H48.5596Z" fill="white"/>
<path d="M61.2213 22.3292C59.2813 22.3292 57.6913 21.9092 56.4513 21.0692C55.2113 20.2292 54.4613 19.0292 54.2013 17.4692L57.6813 16.5692C57.8213 17.2692 58.0513 17.8192 58.3713 18.2192C58.7113 18.6192 59.1213 18.9092 59.6013 19.0892C60.1013 19.2492 60.6413 19.3292 61.2213 19.3292C62.1013 19.3292 62.7513 19.1792 63.1713 18.8792C63.5913 18.5592 63.8013 18.1692 63.8013 17.7092C63.8013 17.2492 63.6013 16.8992 63.2013 16.6592C62.8013 16.3992 62.1613 16.1892 61.2813 16.0292L60.4413 15.8792C59.4013 15.6792 58.4513 15.4092 57.5913 15.0692C56.7313 14.7092 56.0413 14.2192 55.5213 13.5992C55.0013 12.9792 54.7413 12.1792 54.7413 11.1992C54.7413 9.7192 55.2813 8.5892 56.3613 7.8092C57.4413 7.0092 58.8613 6.6092 60.6213 6.6092C62.2813 6.6092 63.6613 6.9792 64.7613 7.7192C65.8613 8.4592 66.5813 9.4292 66.9213 10.6292L63.4113 11.7092C63.2513 10.9492 62.9213 10.4092 62.4213 10.0892C61.9413 9.7692 61.3413 9.6092 60.6213 9.6092C59.9013 9.6092 59.3513 9.7392 58.9713 9.9992C58.5913 10.2392 58.4013 10.5792 58.4013 11.0192C58.4013 11.4992 58.6013 11.8592 59.0013 12.0992C59.4013 12.3192 59.9413 12.4892 60.6213 12.6092L61.4613 12.7592C62.5813 12.9592 63.5913 13.2292 64.4913 13.5692C65.4113 13.8892 66.1313 14.3592 66.6513 14.9792C67.1913 15.5792 67.4613 16.3992 67.4613 17.4392C67.4613 18.9992 66.8913 20.2092 65.7513 21.0692C64.6313 21.9092 63.1213 22.3292 61.2213 22.3292Z" fill="white"/>
<path d="M69.2737 21.9092V0.909197H73.0537V8.8592H73.5937C73.7537 8.5392 74.0037 8.2192 74.3437 7.8992C74.6837 7.5792 75.1337 7.3192 75.6937 7.1192C76.2737 6.8992 77.0037 6.7892 77.8837 6.7892C79.0437 6.7892 80.0537 7.0592 80.9137 7.5992C81.7937 8.1192 82.4737 8.8492 82.9537 9.7892C83.4337 10.7092 83.6737 11.7892 83.6737 13.0292V21.9092H79.8937V13.3292C79.8937 12.2092 79.6137 11.3692 79.0537 10.8092C78.5137 10.2492 77.7337 9.9692 76.7137 9.9692C75.5537 9.9692 74.6537 10.3592 74.0137 11.1392C73.3737 11.8992 73.0537 12.9692 73.0537 14.3492V21.9092H69.2737Z" fill="white"/>
<path d="M86.26 21.9092V7.0292H90.04V21.9092H86.26ZM88.15 5.2892C87.47 5.2892 86.89 5.0692 86.41 4.6292C85.95 4.1892 85.72 3.6092 85.72 2.8892C85.72 2.1692 85.95 1.5892 86.41 1.1492C86.89 0.709197 87.47 0.489197 88.15 0.489197C88.85 0.489197 89.43 0.709197 89.89 1.1492C90.35 1.5892 90.58 2.1692 90.58 2.8892C90.58 3.6092 90.35 4.1892 89.89 4.6292C89.43 5.0692 88.85 5.2892 88.15 5.2892Z" fill="white"/>
<path d="M95.1888 21.9092V10.1492H91.4088V7.0292H95.1888V4.2692C95.1888 3.2492 95.4888 2.4392 96.0888 1.8392C96.7088 1.2192 97.5088 0.909197 98.4888 0.909197H102.389V4.0292H99.8088C99.2488 4.0292 98.9688 4.3292 98.9688 4.9292V7.0292H102.869V10.1492H98.9688V21.9092H95.1888Z" fill="white"/>
<path d="M109.702 21.9092C108.722 21.9092 107.922 21.6092 107.302 21.0092C106.702 20.3892 106.402 19.5692 106.402 18.5492V10.1492H102.682V7.0292H106.402V2.4092H110.182V7.0292H114.262V10.1492H110.182V17.8892C110.182 18.4892 110.462 18.7892 111.022 18.7892H113.902V21.9092H109.702Z" fill="white"/>
</g>
</svg>
