<svg width="145" height="21" viewBox="0 0 145 21" fill="none" xmlns="http://www.w3.org/2000/svg">
<g id="Logotype">
<path d="M0.598633 0.00799561V20H4.99463V11.74H13.3666V8.324H4.99463V3.704H14.6546V0.00799561H0.598633Z" fill="#1C1C1C"/>
<path d="M25.6803 11.208H19.2123C19.231 10.928 19.287 10.6107 19.3803 10.256C19.4923 9.90133 19.6696 9.56533 19.9123 9.248C20.1736 8.93066 20.5096 8.66933 20.9203 8.464C21.3496 8.24 21.8816 8.128 22.5163 8.128C23.487 8.128 24.2056 8.38933 24.6723 8.912C25.1576 9.43466 25.4936 10.2 25.6803 11.208ZM19.2123 13.728H29.6563C29.731 12.608 29.6376 11.5347 29.3763 10.508C29.115 9.48133 28.6856 8.56666 28.0883 7.764C27.5096 6.96133 26.763 6.32666 25.8483 5.86C24.9336 5.37466 23.8603 5.132 22.6283 5.132C21.527 5.132 20.519 5.328 19.6043 5.72C18.7083 6.112 17.9336 6.65333 17.2803 7.344C16.627 8.016 16.123 8.81866 15.7683 9.752C15.4136 10.6853 15.2363 11.6933 15.2363 12.776C15.2363 13.896 15.4043 14.9227 15.7403 15.856C16.095 16.7893 16.5896 17.592 17.2243 18.264C17.859 18.936 18.6336 19.4587 19.5483 19.832C20.463 20.1867 21.4896 20.364 22.6283 20.364C24.271 20.364 25.671 19.9907 26.8283 19.244C27.9856 18.4973 28.8443 17.256 29.4043 15.52H25.9043C25.7736 15.968 25.419 16.3973 24.8403 16.808C24.2616 17.2 23.571 17.396 22.7683 17.396C21.6483 17.396 20.7896 17.1067 20.1923 16.528C19.595 15.9493 19.2683 15.016 19.2123 13.728Z" fill="#1C1C1C"/>
<path d="M31.0064 9.976C31.0624 9.04266 31.2957 8.268 31.7064 7.652C32.1171 7.036 32.6397 6.54133 33.2744 6.168C33.9091 5.79466 34.6184 5.53333 35.4024 5.384C36.2051 5.216 37.0077 5.132 37.8104 5.132C38.5384 5.132 39.2757 5.188 40.0224 5.3C40.7691 5.39333 41.4504 5.58933 42.0664 5.888C42.6824 6.18666 43.1864 6.60666 43.5784 7.148C43.9704 7.67066 44.1664 8.37066 44.1664 9.248V16.78C44.1664 17.4333 44.2038 18.0587 44.2784 18.656C44.3531 19.2533 44.4837 19.7013 44.6704 20H40.6384C40.5638 19.776 40.4984 19.552 40.4424 19.328C40.4051 19.0853 40.3771 18.8427 40.3584 18.6C39.7237 19.2533 38.9771 19.7107 38.1184 19.972C37.2598 20.2333 36.3824 20.364 35.4864 20.364C34.7957 20.364 34.1517 20.28 33.5544 20.112C32.9571 19.944 32.4344 19.6827 31.9864 19.328C31.5384 18.9733 31.1837 18.5253 30.9224 17.984C30.6797 17.4427 30.5584 16.7987 30.5584 16.052C30.5584 15.2307 30.6984 14.5587 30.9784 14.036C31.2771 13.4947 31.6504 13.0653 32.0984 12.748C32.5651 12.4307 33.0877 12.1973 33.6664 12.048C34.2637 11.88 34.8611 11.7493 35.4584 11.656C36.0557 11.5627 36.6437 11.488 37.2224 11.432C37.8011 11.376 38.3144 11.292 38.7624 11.18C39.2104 11.068 39.5651 10.9093 39.8264 10.704C40.0877 10.48 40.2091 10.1627 40.1904 9.752C40.1904 9.32266 40.1157 8.98666 39.9664 8.744C39.8358 8.48266 39.6491 8.28666 39.4064 8.156C39.1824 8.00666 38.9117 7.91333 38.5944 7.876C38.2957 7.82 37.9691 7.792 37.6144 7.792C36.8304 7.792 36.2144 7.96 35.7664 8.296C35.3184 8.632 35.0571 9.192 34.9824 9.976H31.0064ZM40.1904 12.916C40.0224 13.0653 39.8077 13.1867 39.5464 13.28C39.3037 13.3547 39.0331 13.42 38.7344 13.476C38.4544 13.532 38.1558 13.5787 37.8384 13.616C37.5211 13.6533 37.2037 13.7 36.8864 13.756C36.5877 13.812 36.2891 13.8867 35.9904 13.98C35.7104 14.0733 35.4584 14.204 35.2344 14.372C35.0291 14.5213 34.8611 14.7173 34.7304 14.96C34.5998 15.2027 34.5344 15.5107 34.5344 15.884C34.5344 16.2387 34.5998 16.5373 34.7304 16.78C34.8611 17.0227 35.0384 17.2187 35.2624 17.368C35.4864 17.4987 35.7477 17.592 36.0464 17.648C36.3451 17.704 36.6531 17.732 36.9704 17.732C37.7544 17.732 38.3611 17.6013 38.7904 17.34C39.2197 17.0787 39.5371 16.7707 39.7424 16.416C39.9478 16.0427 40.0691 15.6693 40.1064 15.296C40.1624 14.9227 40.1904 14.624 40.1904 14.4V12.916Z" fill="#1C1C1C"/>
<path d="M51.4525 5.524V1.184H47.4765V5.524H45.0685V8.184H47.4765V16.724C47.4765 17.452 47.5979 18.04 47.8405 18.488C48.0832 18.936 48.4099 19.2813 48.8205 19.524C49.2499 19.7667 49.7352 19.9253 50.2765 20C50.8365 20.0933 51.4245 20.14 52.0405 20.14C52.4325 20.14 52.8339 20.1307 53.2445 20.112C53.6552 20.0933 54.0285 20.056 54.3645 20V16.92C54.1779 16.9573 53.9819 16.9853 53.7765 17.004C53.5712 17.0227 53.3565 17.032 53.1325 17.032C52.4605 17.032 52.0125 16.92 51.7885 16.696C51.5645 16.472 51.4525 16.024 51.4525 15.352V8.184H54.3645V5.524H51.4525Z" fill="#1C1C1C"/>
<path d="M55.4163 0.00799561V20H59.3923V12.412C59.3923 10.9373 59.635 9.88266 60.1203 9.248C60.6056 8.59466 61.3896 8.268 62.4723 8.268C63.4243 8.268 64.087 8.56666 64.4603 9.164C64.8336 9.74266 65.0203 10.6293 65.0203 11.824V20H68.9963V11.096C68.9963 10.2 68.9123 9.388 68.7443 8.66C68.595 7.91333 68.3243 7.288 67.9323 6.784C67.5403 6.26133 66.999 5.86 66.3083 5.58C65.6363 5.28133 64.7683 5.132 63.7043 5.132C62.9576 5.132 62.1923 5.328 61.4083 5.72C60.6243 6.09333 59.9803 6.7 59.4763 7.54H59.3923V0.00799561H55.4163Z" fill="#1C1C1C"/>
<path d="M80.9179 11.208H74.45C74.4686 10.928 74.5246 10.6107 74.618 10.256C74.7299 9.90133 74.9073 9.56533 75.1499 9.248C75.4113 8.93066 75.7473 8.66933 76.158 8.464C76.5873 8.24 77.1193 8.128 77.754 8.128C78.7246 8.128 79.4433 8.38933 79.91 8.912C80.3953 9.43466 80.7313 10.2 80.9179 11.208ZM74.45 13.728H84.894C84.9686 12.608 84.8753 11.5347 84.614 10.508C84.3526 9.48133 83.9233 8.56666 83.326 7.764C82.7473 6.96133 82.0006 6.32666 81.086 5.86C80.1713 5.37466 79.098 5.132 77.866 5.132C76.7646 5.132 75.7566 5.328 74.8419 5.72C73.946 6.112 73.1713 6.65333 72.518 7.344C71.8646 8.016 71.3606 8.81866 71.006 9.752C70.6513 10.6853 70.4739 11.6933 70.4739 12.776C70.4739 13.896 70.642 14.9227 70.978 15.856C71.3326 16.7893 71.8273 17.592 72.462 18.264C73.0966 18.936 73.8713 19.4587 74.7859 19.832C75.7006 20.1867 76.7273 20.364 77.866 20.364C79.5086 20.364 80.9086 19.9907 82.0659 19.244C83.2233 18.4973 84.082 17.256 84.642 15.52H81.142C81.0113 15.968 80.6566 16.3973 80.0779 16.808C79.4993 17.2 78.8086 17.396 78.006 17.396C76.8859 17.396 76.0273 17.1067 75.4299 16.528C74.8326 15.9493 74.506 15.016 74.45 13.728Z" fill="#1C1C1C"/>
<path d="M86.4121 5.524V20H90.3881V13.476C90.3881 12.8227 90.4534 12.216 90.5841 11.656C90.7147 11.096 90.9294 10.6107 91.2281 10.2C91.5454 9.77066 91.9561 9.43466 92.4601 9.192C92.9641 8.94933 93.5801 8.828 94.3081 8.828C94.5507 8.828 94.8027 8.84666 95.0641 8.884C95.3254 8.90266 95.5494 8.93066 95.7361 8.968V5.272C95.4187 5.17866 95.1294 5.132 94.8681 5.132C94.3641 5.132 93.8787 5.20666 93.4121 5.356C92.9454 5.50533 92.5067 5.72 92.0961 6C91.6854 6.26133 91.3214 6.588 91.0041 6.98C90.6867 7.35333 90.4347 7.764 90.2481 8.212H90.1921V5.524H86.4121Z" fill="#1C1C1C"/>
<path d="M101.271 16.304V3.704H104.407C105.49 3.704 106.395 3.86266 107.123 4.18C107.87 4.47866 108.467 4.91733 108.915 5.496C109.363 6.07466 109.68 6.77466 109.867 7.596C110.072 8.39866 110.175 9.304 110.175 10.312C110.175 11.4133 110.035 12.3467 109.755 13.112C109.475 13.8773 109.102 14.5027 108.635 14.988C108.168 15.4547 107.636 15.7907 107.039 15.996C106.442 16.2013 105.826 16.304 105.191 16.304H101.271ZM96.8749 0.00799561V20H105.499C107.03 20 108.355 19.748 109.475 19.244C110.614 18.7213 111.556 18.012 112.303 17.116C113.068 16.22 113.638 15.156 114.011 13.924C114.384 12.692 114.571 11.348 114.571 9.892C114.571 8.23066 114.338 6.784 113.871 5.552C113.423 4.32 112.788 3.29333 111.967 2.472C111.164 1.65066 110.203 1.03466 109.083 0.623996C107.982 0.213329 106.787 0.00799561 105.499 0.00799561H96.8749Z" fill="#1C1C1C"/>
<path d="M126.113 11.208H119.645C119.663 10.928 119.719 10.6107 119.813 10.256C119.925 9.90133 120.102 9.56533 120.345 9.248C120.606 8.93066 120.942 8.66933 121.353 8.464C121.782 8.24 122.314 8.128 122.949 8.128C123.919 8.128 124.638 8.38933 125.105 8.912C125.59 9.43466 125.926 10.2 126.113 11.208ZM119.645 13.728H130.089C130.163 12.608 130.07 11.5347 129.809 10.508C129.547 9.48133 129.118 8.56666 128.521 7.764C127.942 6.96133 127.195 6.32666 126.281 5.86C125.366 5.37466 124.293 5.132 123.061 5.132C121.959 5.132 120.951 5.328 120.037 5.72C119.141 6.112 118.366 6.65333 117.713 7.344C117.059 8.016 116.555 8.81866 116.201 9.752C115.846 10.6853 115.669 11.6933 115.669 12.776C115.669 13.896 115.837 14.9227 116.173 15.856C116.527 16.7893 117.022 17.592 117.657 18.264C118.291 18.936 119.066 19.4587 119.981 19.832C120.895 20.1867 121.922 20.364 123.061 20.364C124.703 20.364 126.103 19.9907 127.261 19.244C128.418 18.4973 129.277 17.256 129.837 15.52H126.337C126.206 15.968 125.851 16.3973 125.273 16.808C124.694 17.2 124.003 17.396 123.201 17.396C122.081 17.396 121.222 17.1067 120.625 16.528C120.027 15.9493 119.701 15.016 119.645 13.728Z" fill="#1C1C1C"/>
<path d="M139.615 20L144.515 5.524H140.567L137.515 15.408H137.459L134.407 5.524H130.235L135.191 20H139.615Z" fill="#1C1C1C"/>
</g>
</svg>
