<svg width="39" height="44" viewBox="0 0 39 44" fill="none" xmlns="http://www.w3.org/2000/svg">
<g id="Logomark">
<path id="Shape" fill-rule="evenodd" clip-rule="evenodd" d="M20.0987 1.4479C19.5937 1.34403 19.0728 1.34403 18.5678 1.4479C17.984 1.56797 17.4622 1.86023 17.0473 2.09258L16.9343 2.15574L2.87478 9.96657C2.83591 9.98816 2.79586 10.0102 2.75482 10.0328C2.31569 10.2747 1.76354 10.5788 1.33952 11.0389C0.972926 11.4368 0.695498 11.9082 0.525787 12.4219C0.329492 13.016 0.331789 13.6464 0.333615 14.1477C0.333786 14.1946 0.333952 14.2403 0.333952 14.2847V29.7067C0.333952 29.7511 0.333786 29.7969 0.333615 29.8437C0.331789 30.3451 0.329492 30.9754 0.525788 31.5695C0.695499 32.0832 0.972929 32.5547 1.33952 32.9525C1.76354 33.4126 2.31569 33.7167 2.75482 33.9586C2.79586 33.9812 2.83591 34.0033 2.87478 34.0249L16.9343 41.8357L17.0473 41.8988C17.4622 42.1312 17.984 42.4235 18.5678 42.5435C19.0728 42.6474 19.5937 42.6474 20.0987 42.5435C20.6825 42.4235 21.2043 42.1312 21.6192 41.8988L21.7322 41.8357L35.7917 34.0249C35.8089 34.0153 35.8263 34.0057 35.8439 33.9959C35.8662 33.9837 35.8888 33.9712 35.9117 33.9586C36.3508 33.7167 36.903 33.4126 37.327 32.9525C37.6936 32.5547 37.971 32.0832 38.1407 31.5695C38.337 30.9754 38.3347 30.3451 38.3329 29.8437C38.3327 29.7969 38.3326 29.7511 38.3326 29.7067V14.2847C38.3326 14.2403 38.3327 14.1946 38.3329 14.1477C38.3347 13.6464 38.337 13.016 38.1407 12.4219C37.971 11.9082 37.6936 11.4367 37.327 11.0389C36.903 10.5788 36.3508 10.2747 35.9117 10.0328L35.9101 10.032C35.8696 10.0097 35.8301 9.98788 35.7917 9.96657L21.7322 2.15574L21.6192 2.09257C21.2043 1.86022 20.6825 1.56797 20.0987 1.4479ZM18.7796 5.47742C19.0676 5.31746 19.2145 5.23664 19.3242 5.18376L19.3333 5.17941L19.3423 5.18376C19.452 5.23664 19.5989 5.31746 19.8869 5.47742L32.5203 12.496L19.3332 19.8222L6.1461 12.4961L18.7796 5.47742ZM4.13381 15.725L17.4333 23.1136L17.4333 37.766L4.72016 30.7032C4.41626 30.5343 4.2611 30.4472 4.15224 30.3779L4.14305 30.372L4.14236 30.3611C4.1346 30.2323 4.13381 30.0543 4.13381 29.7067V15.725Z" fill="white"/>
</g>
</svg>
