<svg width="19" height="22" viewBox="0 0 19 22" fill="none" xmlns="http://www.w3.org/2000/svg">
<g id="Logomark">
<path id="Shape" fill-rule="evenodd" clip-rule="evenodd" d="M9.88274 0.723949C9.63023 0.672014 9.36978 0.672014 9.11726 0.723949C8.82536 0.783983 8.56446 0.930114 8.35704 1.04629L8.30051 1.07787L1.27076 4.98328C1.25133 4.99408 1.2313 5.00511 1.21078 5.01641C0.991217 5.13735 0.715143 5.28941 0.503134 5.51947C0.319837 5.71838 0.181123 5.95412 0.0962677 6.21095C-0.00187993 6.508 -0.000731626 6.82318 0.000181579 7.07385C0.000266945 7.09728 0.00035021 7.12014 0.00035021 7.14237V14.8533C0.00035021 14.8756 0.000266945 14.8984 0.000181579 14.9219C-0.000731626 15.1725 -0.00187993 15.4877 0.0962678 15.7848C0.181124 16.0416 0.319838 16.2773 0.503135 16.4762C0.715144 16.7063 0.991219 16.8584 1.21078 16.9793C1.2313 16.9906 1.25133 17.0016 1.27077 17.0124L8.30051 20.9178L8.35705 20.9494C8.56447 21.0656 8.82536 21.2117 9.11726 21.2718C9.36978 21.3237 9.63023 21.3237 9.88274 21.2718C10.1746 21.2117 10.4355 21.0656 10.643 20.9494L10.6995 20.9178L17.7292 17.0124C17.7378 17.0077 17.7465 17.0028 17.7553 16.998C17.7665 16.9918 17.7778 16.9856 17.7892 16.9793C18.0088 16.8584 18.2849 16.7063 18.4969 16.4762C18.6802 16.2773 18.8189 16.0416 18.9037 15.7848C19.0019 15.4877 19.0007 15.1725 18.9998 14.9219C18.9997 14.8984 18.9997 14.8756 18.9997 14.8533V7.14237C18.9997 7.12014 18.9997 7.09728 18.9998 7.07386C19.0007 6.82318 19.0019 6.508 18.9037 6.21095C18.8189 5.95412 18.6802 5.71837 18.4969 5.51947C18.2849 5.28941 18.0088 5.13735 17.7892 5.01641L17.7884 5.01598C17.7682 5.00483 17.7484 4.99394 17.7292 4.98328L10.6995 1.07787L10.643 1.04629C10.4355 0.930112 10.1746 0.783983 9.88274 0.723949ZM9.22319 2.73871C9.36715 2.65873 9.44064 2.61832 9.49546 2.59188L9.5 2.58971L9.50454 2.59188C9.55936 2.61832 9.63285 2.65873 9.77681 2.73871L16.0935 6.24801L9.49997 9.91111L2.90642 6.24803L9.22319 2.73871ZM1.90028 7.8625L8.55001 11.5568L8.55003 18.883L2.19345 15.3516C2.0415 15.2672 1.96392 15.2236 1.9095 15.1889L1.9049 15.186L1.90456 15.1806C1.90068 15.1161 1.90028 15.0272 1.90028 14.8533V7.8625Z" fill="#1C1C1C"/>
</g>
</svg>
