<svg width="117" height="30" viewBox="0 0 117 30" fill="none" xmlns="http://www.w3.org/2000/svg">
<g id="Logotype">
<path d="M4.62432 18.3452H10.6723V21.9092H0.00732422V2.95523H4.62432V18.3452Z" fill="white"/>
<path d="M14.9265 5.27723C14.1165 5.27723 13.4505 5.04323 12.9285 4.57523C12.4245 4.08923 12.1725 3.49523 12.1725 2.79323C12.1725 2.07323 12.4245 1.47923 12.9285 1.01123C13.4505 0.525227 14.1165 0.282227 14.9265 0.282227C15.7185 0.282227 16.3665 0.525227 16.8705 1.01123C17.3925 1.47923 17.6535 2.07323 17.6535 2.79323C17.6535 3.49523 17.3925 4.08923 16.8705 4.57523C16.3665 5.04323 15.7185 5.27723 14.9265 5.27723ZM17.2215 6.84323V21.9092H12.6045V6.84323H17.2215Z" fill="white"/>
<path d="M26.0214 6.62723C27.0834 6.62723 28.0104 6.84323 28.8024 7.27523C29.6124 7.70723 30.2334 8.27423 30.6654 8.97623V6.84323H35.2824V21.8822C35.2824 23.2682 35.0034 24.5192 34.4454 25.6352C33.9054 26.7692 33.0684 27.6692 31.9344 28.3352C30.8184 29.0012 29.4234 29.3342 27.7494 29.3342C25.5174 29.3342 23.7084 28.8032 22.3224 27.7412C20.9364 26.6972 20.1444 25.2752 19.9464 23.4752H24.5094C24.6534 24.0512 24.9954 24.5012 25.5354 24.8252C26.0754 25.1672 26.7414 25.3382 27.5334 25.3382C28.4874 25.3382 29.2434 25.0592 29.8014 24.5012C30.3774 23.9612 30.6654 23.0882 30.6654 21.8822V19.7492C30.2154 20.4512 29.5944 21.0272 28.8024 21.4772C28.0104 21.9092 27.0834 22.1252 26.0214 22.1252C24.7794 22.1252 23.6544 21.8102 22.6464 21.1802C21.6384 20.5322 20.8374 19.6232 20.2434 18.4532C19.6674 17.2652 19.3794 15.8972 19.3794 14.3492C19.3794 12.8012 19.6674 11.4422 20.2434 10.2722C20.8374 9.10223 21.6384 8.20223 22.6464 7.57223C23.6544 6.94223 24.7794 6.62723 26.0214 6.62723ZM30.6654 14.3762C30.6654 13.2242 30.3414 12.3152 29.6934 11.6492C29.0634 10.9832 28.2894 10.6502 27.3714 10.6502C26.4534 10.6502 25.6704 10.9832 25.0224 11.6492C24.3924 12.2972 24.0774 13.1972 24.0774 14.3492C24.0774 15.5012 24.3924 16.4192 25.0224 17.1032C25.6704 17.7692 26.4534 18.1022 27.3714 18.1022C28.2894 18.1022 29.0634 17.7692 29.6934 17.1032C30.3414 16.4372 30.6654 15.5282 30.6654 14.3762Z" fill="white"/>
<path d="M47.6136 6.68123C49.3416 6.68123 50.7276 7.25723 51.7716 8.40923C52.8156 9.54323 53.3376 11.1092 53.3376 13.1072V21.9092H48.7476V13.7282C48.7476 12.7202 48.4866 11.9372 47.9646 11.3792C47.4426 10.8212 46.7406 10.5422 45.8586 10.5422C44.9766 10.5422 44.2746 10.8212 43.7526 11.3792C43.2306 11.9372 42.9696 12.7202 42.9696 13.7282V21.9092H38.3526V1.92923H42.9696V8.86823C43.4376 8.20223 44.0766 7.67123 44.8866 7.27523C45.6966 6.87923 46.6056 6.68123 47.6136 6.68123Z" fill="white"/>
<path d="M64.673 17.9942V21.9092H62.324C60.65 21.9092 59.345 21.5042 58.409 20.6942C57.473 19.8662 57.005 18.5252 57.005 16.6712V10.6772H55.169V6.84323H57.005V3.17123H61.622V6.84323H64.646V10.6772H61.622V16.7252C61.622 17.1752 61.73 17.4992 61.946 17.6972C62.162 17.8952 62.522 17.9942 63.026 17.9942H64.673Z" fill="white"/>
<path d="M71.5917 8.97623C72.0237 8.27423 72.6447 7.70723 73.4547 7.27523C74.2647 6.84323 75.1917 6.62723 76.2357 6.62723C77.4777 6.62723 78.6027 6.94223 79.6107 7.57223C80.6187 8.20223 81.4107 9.10223 81.9867 10.2722C82.5807 11.4422 82.8777 12.8012 82.8777 14.3492C82.8777 15.8972 82.5807 17.2652 81.9867 18.4532C81.4107 19.6232 80.6187 20.5322 79.6107 21.1802C78.6027 21.8102 77.4777 22.1252 76.2357 22.1252C75.1737 22.1252 74.2467 21.9182 73.4547 21.5042C72.6627 21.0722 72.0417 20.5052 71.5917 19.8032V21.9092H66.9747V1.92923H71.5917V8.97623ZM78.1797 14.3492C78.1797 13.1972 77.8557 12.2972 77.2077 11.6492C76.5777 10.9832 75.7947 10.6502 74.8587 10.6502C73.9407 10.6502 73.1577 10.9832 72.5097 11.6492C71.8797 12.3152 71.5647 13.2242 71.5647 14.3762C71.5647 15.5282 71.8797 16.4372 72.5097 17.1032C73.1577 17.7692 73.9407 18.1022 74.8587 18.1022C75.7767 18.1022 76.5597 17.7692 77.2077 17.1032C77.8557 16.4192 78.1797 15.5012 78.1797 14.3492Z" fill="white"/>
<path d="M91.8879 22.1252C90.4119 22.1252 89.0799 21.8102 87.8919 21.1802C86.7219 20.5502 85.7949 19.6502 85.1109 18.4802C84.4449 17.3102 84.1119 15.9422 84.1119 14.3762C84.1119 12.8282 84.4539 11.4692 85.1379 10.2992C85.8219 9.11123 86.7579 8.20223 87.9459 7.57223C89.1339 6.94223 90.4659 6.62723 91.9419 6.62723C93.4179 6.62723 94.7499 6.94223 95.9379 7.57223C97.1259 8.20223 98.0619 9.11123 98.7459 10.2992C99.4299 11.4692 99.7719 12.8282 99.7719 14.3762C99.7719 15.9242 99.4209 17.2922 98.7189 18.4802C98.0349 19.6502 97.0899 20.5502 95.8839 21.1802C94.6959 21.8102 93.3639 22.1252 91.8879 22.1252ZM91.8879 18.1292C92.7699 18.1292 93.5169 17.8052 94.1289 17.1572C94.7589 16.5092 95.0739 15.5822 95.0739 14.3762C95.0739 13.1702 94.7679 12.2432 94.1559 11.5952C93.5619 10.9472 92.8239 10.6232 91.9419 10.6232C91.0419 10.6232 90.2949 10.9472 89.7009 11.5952C89.1069 12.2252 88.8099 13.1522 88.8099 14.3762C88.8099 15.5822 89.0979 16.5092 89.6739 17.1572C90.2679 17.8052 91.0059 18.1292 91.8879 18.1292Z" fill="white"/>
<path d="M110.861 21.9092L107.972 17.7242L105.542 21.9092H100.547L105.515 14.2142L100.412 6.84323H105.596L108.485 11.0012L110.915 6.84323H115.91L110.861 14.4302L116.045 21.9092H110.861Z" fill="white"/>
</g>
</svg>
