<svg width="59" height="15" viewBox="0 0 59 15" fill="none" xmlns="http://www.w3.org/2000/svg">
<g id="Logotype">
<path d="M2.64554 9.17261H5.66954V10.9546H0.337036V1.47761H2.64554V9.17261Z" fill="#1C1C1C"/>
<path d="M7.79663 2.63861C7.39163 2.63861 7.05863 2.52161 6.79763 2.28761C6.54563 2.04461 6.41963 1.74761 6.41963 1.39661C6.41963 1.03661 6.54563 0.739614 6.79763 0.505613C7.05863 0.262613 7.39163 0.141113 7.79663 0.141113C8.19263 0.141113 8.51663 0.262613 8.76863 0.505613C9.02963 0.739614 9.16013 1.03661 9.16013 1.39661C9.16013 1.74761 9.02963 2.04461 8.76863 2.28761C8.51663 2.52161 8.19263 2.63861 7.79663 2.63861ZM8.94413 3.42161V10.9546H6.63563V3.42161H8.94413Z" fill="#1C1C1C"/>
<path d="M13.3441 3.31361C13.8751 3.31361 14.3386 3.42161 14.7346 3.63761C15.1396 3.85361 15.4501 4.13711 15.6661 4.48811V3.42161H17.9746V10.9411C17.9746 11.6341 17.8351 12.2596 17.5561 12.8176C17.2861 13.3846 16.8676 13.8346 16.3006 14.1676C15.7426 14.5006 15.0451 14.6671 14.2081 14.6671C13.0921 14.6671 12.1876 14.4016 11.4946 13.8706C10.8016 13.3486 10.4056 12.6376 10.3066 11.7376H12.5881C12.6601 12.0256 12.8311 12.2506 13.1011 12.4126C13.3711 12.5836 13.7041 12.6691 14.1001 12.6691C14.5771 12.6691 14.9551 12.5296 15.2341 12.2506C15.5221 11.9806 15.6661 11.5441 15.6661 10.9411V9.87461C15.4411 10.2256 15.1306 10.5136 14.7346 10.7386C14.3386 10.9546 13.8751 11.0626 13.3441 11.0626C12.7231 11.0626 12.1606 10.9051 11.6566 10.5901C11.1526 10.2661 10.7521 9.81161 10.4551 9.22661C10.1671 8.63261 10.0231 7.94861 10.0231 7.17461C10.0231 6.40061 10.1671 5.72111 10.4551 5.13611C10.7521 4.55111 11.1526 4.10111 11.6566 3.78611C12.1606 3.47111 12.7231 3.31361 13.3441 3.31361ZM15.6661 7.18811C15.6661 6.61211 15.5041 6.15761 15.1801 5.82461C14.8651 5.49161 14.4781 5.32511 14.0191 5.32511C13.5601 5.32511 13.1686 5.49161 12.8446 5.82461C12.5296 6.14861 12.3721 6.59861 12.3721 7.17461C12.3721 7.75061 12.5296 8.20961 12.8446 8.55161C13.1686 8.88461 13.5601 9.05111 14.0191 9.05111C14.4781 9.05111 14.8651 8.88461 15.1801 8.55161C15.5041 8.21861 15.6661 7.76411 15.6661 7.18811Z" fill="#1C1C1C"/>
<path d="M24.1402 3.34061C25.0042 3.34061 25.6972 3.62861 26.2192 4.20461C26.7412 4.77161 27.0022 5.55461 27.0022 6.55361V10.9546H24.7072V6.86411C24.7072 6.36011 24.5767 5.96861 24.3157 5.68961C24.0547 5.41061 23.7037 5.27111 23.2627 5.27111C22.8217 5.27111 22.4707 5.41061 22.2097 5.68961C21.9487 5.96861 21.8182 6.36011 21.8182 6.86411V10.9546H19.5097V0.964614H21.8182V4.43411C22.0522 4.10111 22.3717 3.83561 22.7767 3.63761C23.1817 3.43961 23.6362 3.34061 24.1402 3.34061Z" fill="#1C1C1C"/>
<path d="M32.6698 8.99711V10.9546H31.4954C30.6584 10.9546 30.0059 10.7521 29.5379 10.3471C29.0699 9.93311 28.8359 9.26261 28.8359 8.33561V5.33861H27.9179V3.42161H28.8359V1.58561H31.1444V3.42161H32.6563V5.33861H31.1444V8.36261C31.1444 8.58761 31.1984 8.74961 31.3064 8.84861C31.4144 8.94761 31.5944 8.99711 31.8464 8.99711H32.6698Z" fill="#1C1C1C"/>
<path d="M36.1292 4.48811C36.3452 4.13711 36.6557 3.85361 37.0607 3.63761C37.4657 3.42161 37.9292 3.31361 38.4512 3.31361C39.0722 3.31361 39.6347 3.47111 40.1387 3.78611C40.6427 4.10111 41.0387 4.55111 41.3267 5.13611C41.6237 5.72111 41.7722 6.40061 41.7722 7.17461C41.7722 7.94861 41.6237 8.63261 41.3267 9.22661C41.0387 9.81161 40.6427 10.2661 40.1387 10.5901C39.6347 10.9051 39.0722 11.0626 38.4512 11.0626C37.9202 11.0626 37.4567 10.9591 37.0607 10.7521C36.6647 10.5361 36.3542 10.2526 36.1292 9.90161V10.9546H33.8207V0.964614H36.1292V4.48811ZM39.4232 7.17461C39.4232 6.59861 39.2612 6.14861 38.9372 5.82461C38.6222 5.49161 38.2307 5.32511 37.7627 5.32511C37.3037 5.32511 36.9122 5.49161 36.5882 5.82461C36.2732 6.15761 36.1157 6.61211 36.1157 7.18811C36.1157 7.76411 36.2732 8.21861 36.5882 8.55161C36.9122 8.88461 37.3037 9.05111 37.7627 9.05111C38.2217 9.05111 38.6132 8.88461 38.9372 8.55161C39.2612 8.20961 39.4232 7.75061 39.4232 7.17461Z" fill="#1C1C1C"/>
<path d="M46.2773 11.0626C45.5393 11.0626 44.8733 10.9051 44.2793 10.5901C43.6943 10.2751 43.2308 9.82511 42.8888 9.24011C42.5558 8.65511 42.3893 7.97111 42.3893 7.18811C42.3893 6.41411 42.5603 5.73461 42.9023 5.14961C43.2443 4.55561 43.7123 4.10111 44.3063 3.78611C44.9003 3.47111 45.5663 3.31361 46.3043 3.31361C47.0423 3.31361 47.7083 3.47111 48.3023 3.78611C48.8963 4.10111 49.3643 4.55561 49.7063 5.14961C50.0483 5.73461 50.2193 6.41411 50.2193 7.18811C50.2193 7.96211 50.0438 8.64611 49.6928 9.24011C49.3508 9.82511 48.8783 10.2751 48.2753 10.5901C47.6813 10.9051 47.0153 11.0626 46.2773 11.0626ZM46.2773 9.06461C46.7183 9.06461 47.0918 8.90261 47.3978 8.57861C47.7128 8.25461 47.8703 7.79111 47.8703 7.18811C47.8703 6.58511 47.7173 6.12161 47.4113 5.79761C47.1143 5.47361 46.7453 5.31161 46.3043 5.31161C45.8543 5.31161 45.4808 5.47361 45.1838 5.79761C44.8868 6.11261 44.7383 6.57611 44.7383 7.18811C44.7383 7.79111 44.8823 8.25461 45.1703 8.57861C45.4673 8.90261 45.8363 9.06461 46.2773 9.06461Z" fill="#1C1C1C"/>
<path d="M55.764 10.9546L54.3195 8.86211L53.1045 10.9546H50.607L53.091 7.10711L50.5395 3.42161H53.1315L54.576 5.50061L55.791 3.42161H58.2885L55.764 7.21511L58.356 10.9546H55.764Z" fill="#1C1C1C"/>
</g>
</svg>
