<svg width="145" height="21" viewBox="0 0 145 21" fill="none" xmlns="http://www.w3.org/2000/svg">
<g id="Logotype">
<path d="M0.598389 0.00799561V20H4.99439V11.74H13.3664V8.324H4.99439V3.704H14.6544V0.00799561H0.598389Z" fill="white"/>
<path d="M25.68 11.208H19.212C19.2307 10.928 19.2867 10.6107 19.38 10.256C19.492 9.90133 19.6694 9.56533 19.912 9.248C20.1734 8.93066 20.5094 8.66933 20.92 8.464C21.3494 8.24 21.8814 8.128 22.516 8.128C23.4867 8.128 24.2054 8.38933 24.672 8.912C25.1574 9.43466 25.4934 10.2 25.68 11.208ZM19.212 13.728H29.656C29.7307 12.608 29.6374 11.5347 29.376 10.508C29.1147 9.48133 28.6854 8.56666 28.088 7.764C27.5094 6.96133 26.7627 6.32666 25.848 5.86C24.9334 5.37466 23.86 5.132 22.628 5.132C21.5267 5.132 20.5187 5.328 19.604 5.72C18.708 6.112 17.9334 6.65333 17.28 7.344C16.6267 8.016 16.1227 8.81866 15.768 9.752C15.4134 10.6853 15.236 11.6933 15.236 12.776C15.236 13.896 15.404 14.9227 15.74 15.856C16.0947 16.7893 16.5894 17.592 17.224 18.264C17.8587 18.936 18.6334 19.4587 19.548 19.832C20.4627 20.1867 21.4894 20.364 22.628 20.364C24.2707 20.364 25.6707 19.9907 26.828 19.244C27.9854 18.4973 28.844 17.256 29.404 15.52H25.904C25.7734 15.968 25.4187 16.3973 24.84 16.808C24.2614 17.2 23.5707 17.396 22.768 17.396C21.648 17.396 20.7894 17.1067 20.192 16.528C19.5947 15.9493 19.268 15.016 19.212 13.728Z" fill="white"/>
<path d="M31.0062 9.976C31.0622 9.04266 31.2955 8.268 31.7062 7.652C32.1168 7.036 32.6395 6.54133 33.2742 6.168C33.9088 5.79466 34.6182 5.53333 35.4022 5.384C36.2048 5.216 37.0075 5.132 37.8102 5.132C38.5382 5.132 39.2755 5.188 40.0222 5.3C40.7688 5.39333 41.4502 5.58933 42.0662 5.888C42.6822 6.18666 43.1862 6.60666 43.5782 7.148C43.9702 7.67066 44.1662 8.37066 44.1662 9.248V16.78C44.1662 17.4333 44.2035 18.0587 44.2782 18.656C44.3528 19.2533 44.4835 19.7013 44.6702 20H40.6382C40.5635 19.776 40.4982 19.552 40.4422 19.328C40.4048 19.0853 40.3768 18.8427 40.3582 18.6C39.7235 19.2533 38.9768 19.7107 38.1182 19.972C37.2595 20.2333 36.3822 20.364 35.4862 20.364C34.7955 20.364 34.1515 20.28 33.5542 20.112C32.9568 19.944 32.4342 19.6827 31.9862 19.328C31.5382 18.9733 31.1835 18.5253 30.9222 17.984C30.6795 17.4427 30.5582 16.7987 30.5582 16.052C30.5582 15.2307 30.6982 14.5587 30.9782 14.036C31.2768 13.4947 31.6502 13.0653 32.0982 12.748C32.5648 12.4307 33.0875 12.1973 33.6662 12.048C34.2635 11.88 34.8608 11.7493 35.4582 11.656C36.0555 11.5627 36.6435 11.488 37.2222 11.432C37.8008 11.376 38.3142 11.292 38.7622 11.18C39.2102 11.068 39.5648 10.9093 39.8262 10.704C40.0875 10.48 40.2088 10.1627 40.1902 9.752C40.1902 9.32266 40.1155 8.98666 39.9662 8.744C39.8355 8.48266 39.6488 8.28666 39.4062 8.156C39.1822 8.00666 38.9115 7.91333 38.5942 7.876C38.2955 7.82 37.9688 7.792 37.6142 7.792C36.8302 7.792 36.2142 7.96 35.7662 8.296C35.3182 8.632 35.0568 9.192 34.9822 9.976H31.0062ZM40.1902 12.916C40.0222 13.0653 39.8075 13.1867 39.5462 13.28C39.3035 13.3547 39.0328 13.42 38.7342 13.476C38.4542 13.532 38.1555 13.5787 37.8382 13.616C37.5208 13.6533 37.2035 13.7 36.8862 13.756C36.5875 13.812 36.2888 13.8867 35.9902 13.98C35.7102 14.0733 35.4582 14.204 35.2342 14.372C35.0288 14.5213 34.8608 14.7173 34.7302 14.96C34.5995 15.2027 34.5342 15.5107 34.5342 15.884C34.5342 16.2387 34.5995 16.5373 34.7302 16.78C34.8608 17.0227 35.0382 17.2187 35.2622 17.368C35.4862 17.4987 35.7475 17.592 36.0462 17.648C36.3448 17.704 36.6528 17.732 36.9702 17.732C37.7542 17.732 38.3608 17.6013 38.7902 17.34C39.2195 17.0787 39.5368 16.7707 39.7422 16.416C39.9475 16.0427 40.0688 15.6693 40.1062 15.296C40.1622 14.9227 40.1902 14.624 40.1902 14.4V12.916Z" fill="white"/>
<path d="M51.4523 5.524V1.184H47.4763V5.524H45.0683V8.184H47.4763V16.724C47.4763 17.452 47.5976 18.04 47.8403 18.488C48.083 18.936 48.4096 19.2813 48.8203 19.524C49.2496 19.7667 49.735 19.9253 50.2763 20C50.8363 20.0933 51.4243 20.14 52.0403 20.14C52.4323 20.14 52.8336 20.1307 53.2443 20.112C53.655 20.0933 54.0283 20.056 54.3643 20V16.92C54.1776 16.9573 53.9816 16.9853 53.7763 17.004C53.571 17.0227 53.3563 17.032 53.1323 17.032C52.4603 17.032 52.0123 16.92 51.7883 16.696C51.5643 16.472 51.4523 16.024 51.4523 15.352V8.184H54.3643V5.524H51.4523Z" fill="white"/>
<path d="M55.416 0.00799561V20H59.392V12.412C59.392 10.9373 59.6347 9.88266 60.12 9.248C60.6054 8.59466 61.3894 8.268 62.472 8.268C63.424 8.268 64.0867 8.56666 64.46 9.164C64.8334 9.74266 65.02 10.6293 65.02 11.824V20H68.996V11.096C68.996 10.2 68.912 9.388 68.744 8.66C68.5947 7.91333 68.324 7.288 67.932 6.784C67.54 6.26133 66.9987 5.86 66.308 5.58C65.636 5.28133 64.7681 5.132 63.704 5.132C62.9574 5.132 62.192 5.328 61.408 5.72C60.624 6.09333 59.98 6.7 59.476 7.54H59.392V0.00799561H55.416Z" fill="white"/>
<path d="M80.9177 11.208H74.4497C74.4684 10.928 74.5244 10.6107 74.6177 10.256C74.7297 9.90133 74.907 9.56533 75.1497 9.248C75.411 8.93066 75.747 8.66933 76.1577 8.464C76.587 8.24 77.119 8.128 77.7537 8.128C78.7244 8.128 79.443 8.38933 79.9097 8.912C80.395 9.43466 80.731 10.2 80.9177 11.208ZM74.4497 13.728H84.8937C84.9684 12.608 84.875 11.5347 84.6137 10.508C84.3524 9.48133 83.923 8.56666 83.3257 7.764C82.747 6.96133 82.0004 6.32666 81.0857 5.86C80.171 5.37466 79.0977 5.132 77.8657 5.132C76.7644 5.132 75.7564 5.328 74.8417 5.72C73.9457 6.112 73.171 6.65333 72.5177 7.344C71.8644 8.016 71.3604 8.81866 71.0057 9.752C70.651 10.6853 70.4737 11.6933 70.4737 12.776C70.4737 13.896 70.6417 14.9227 70.9777 15.856C71.3324 16.7893 71.827 17.592 72.4617 18.264C73.0964 18.936 73.871 19.4587 74.7857 19.832C75.7004 20.1867 76.727 20.364 77.8657 20.364C79.5084 20.364 80.9084 19.9907 82.0657 19.244C83.223 18.4973 84.0817 17.256 84.6417 15.52H81.1417C81.011 15.968 80.6564 16.3973 80.0777 16.808C79.499 17.2 78.8084 17.396 78.0057 17.396C76.8857 17.396 76.027 17.1067 75.4297 16.528C74.8324 15.9493 74.5057 15.016 74.4497 13.728Z" fill="white"/>
<path d="M86.4118 5.524V20H90.3878V13.476C90.3878 12.8227 90.4532 12.216 90.5838 11.656C90.7145 11.096 90.9292 10.6107 91.2278 10.2C91.5452 9.77066 91.9558 9.43466 92.4598 9.192C92.9638 8.94933 93.5798 8.828 94.3078 8.828C94.5505 8.828 94.8025 8.84666 95.0638 8.884C95.3252 8.90266 95.5492 8.93066 95.7358 8.968V5.272C95.4185 5.17866 95.1292 5.132 94.8678 5.132C94.3638 5.132 93.8785 5.20666 93.4118 5.356C92.9452 5.50533 92.5065 5.72 92.0958 6C91.6852 6.26133 91.3212 6.588 91.0038 6.98C90.6865 7.35333 90.4345 7.764 90.2478 8.212H90.1918V5.524H86.4118Z" fill="white"/>
<path d="M101.271 16.304V3.704H104.407C105.489 3.704 106.395 3.86266 107.123 4.18C107.869 4.47866 108.467 4.91733 108.915 5.496C109.363 6.07466 109.68 6.77466 109.867 7.596C110.072 8.39866 110.175 9.304 110.175 10.312C110.175 11.4133 110.035 12.3467 109.755 13.112C109.475 13.8773 109.101 14.5027 108.635 14.988C108.168 15.4547 107.636 15.7907 107.039 15.996C106.441 16.2013 105.825 16.304 105.191 16.304H101.271ZM96.8746 0.00799561V20H105.499C107.029 20 108.355 19.748 109.475 19.244C110.613 18.7213 111.556 18.012 112.303 17.116C113.068 16.22 113.637 15.156 114.011 13.924C114.384 12.692 114.571 11.348 114.571 9.892C114.571 8.23066 114.337 6.784 113.871 5.552C113.423 4.32 112.788 3.29333 111.967 2.472C111.164 1.65066 110.203 1.03466 109.083 0.623996C107.981 0.213329 106.787 0.00799561 105.499 0.00799561H96.8746Z" fill="white"/>
<path d="M126.113 11.208H119.645C119.663 10.928 119.719 10.6107 119.813 10.256C119.925 9.90133 120.102 9.56533 120.345 9.248C120.606 8.93066 120.942 8.66933 121.353 8.464C121.782 8.24 122.314 8.128 122.949 8.128C123.919 8.128 124.638 8.38933 125.105 8.912C125.59 9.43466 125.926 10.2 126.113 11.208ZM119.645 13.728H130.089C130.163 12.608 130.07 11.5347 129.809 10.508C129.547 9.48133 129.118 8.56666 128.521 7.764C127.942 6.96133 127.195 6.32666 126.281 5.86C125.366 5.37466 124.293 5.132 123.061 5.132C121.959 5.132 120.951 5.328 120.037 5.72C119.141 6.112 118.366 6.65333 117.713 7.344C117.059 8.016 116.555 8.81866 116.201 9.752C115.846 10.6853 115.669 11.6933 115.669 12.776C115.669 13.896 115.837 14.9227 116.173 15.856C116.527 16.7893 117.022 17.592 117.657 18.264C118.291 18.936 119.066 19.4587 119.981 19.832C120.895 20.1867 121.922 20.364 123.061 20.364C124.703 20.364 126.103 19.9907 127.261 19.244C128.418 18.4973 129.277 17.256 129.837 15.52H126.337C126.206 15.968 125.851 16.3973 125.273 16.808C124.694 17.2 124.003 17.396 123.201 17.396C122.081 17.396 121.222 17.1067 120.625 16.528C120.027 15.9493 119.701 15.016 119.645 13.728Z" fill="white"/>
<path d="M139.615 20L144.515 5.524H140.567L137.515 15.408H137.459L134.407 5.524H130.235L135.191 20H139.615Z" fill="white"/>
</g>
</svg>
