<svg width="156" height="20" viewBox="0 0 156 20" fill="none" xmlns="http://www.w3.org/2000/svg">
<g id="Vector">
<path d="M7.48581 8.60307H5.08143V19.771H1.56161V8.60307H0V5.67752H1.56161V4.96521C1.56161 3.23532 2.04083 1.96334 2.99928 1.14927C3.95773 0.335203 5.40366 -0.0463901 7.33709 0.0044894V3.00636C6.49431 2.9894 5.90768 3.13356 5.57718 3.43883C5.24668 3.74411 5.08143 4.2953 5.08143 5.0924V5.67752H7.48581V8.60307Z" fill="white"/>
<path d="M15.9563 20C14.6343 20 13.4445 19.7032 12.3869 19.1096C11.3293 18.4991 10.4948 17.6426 9.88341 16.5402C9.28852 15.4378 8.99107 14.1659 8.99107 12.7243C8.99107 11.2827 9.29678 10.0107 9.9082 8.90834C10.5362 7.80596 11.3872 6.95797 12.4613 6.36438C13.5354 5.75383 14.7335 5.44856 16.0555 5.44856C17.3775 5.44856 18.5755 5.75383 19.6497 6.36438C20.7238 6.95797 21.5666 7.80596 22.178 8.90834C22.8059 10.0107 23.1199 11.2827 23.1199 12.7243C23.1199 14.1659 22.7977 15.4378 22.1532 16.5402C21.5253 17.6426 20.666 18.4991 19.5753 19.1096C18.5012 19.7032 17.2949 20 15.9563 20ZM15.9563 16.8964C16.5843 16.8964 17.1709 16.7437 17.7162 16.4385C18.2781 16.1162 18.7243 15.6414 19.0548 15.0138C19.3853 14.3863 19.5505 13.6231 19.5505 12.7243C19.5505 11.3845 19.2035 10.3584 18.5094 9.64609C17.8319 8.91682 16.9974 8.55219 16.0059 8.55219C15.0144 8.55219 14.1799 8.91682 13.5024 9.64609C12.8414 10.3584 12.5109 11.3845 12.5109 12.7243C12.5109 14.0641 12.8331 15.0986 13.4776 15.8279C14.1386 16.5402 14.9648 16.8964 15.9563 16.8964Z" fill="white"/>
<path d="M38.7532 5.67752V19.771H35.2582V17.9903C34.812 18.6008 34.2254 19.0842 33.4983 19.4403C32.7877 19.7795 32.0111 19.9491 31.1683 19.9491C30.0942 19.9491 29.144 19.7202 28.3177 19.2623C27.4915 18.7874 26.8387 18.1005 26.3595 17.2016C25.8968 16.2858 25.6655 15.2004 25.6655 13.9454V5.67752H29.1357V13.4366C29.1357 14.5559 29.4084 15.4209 29.9537 16.0314C30.499 16.625 31.2426 16.9218 32.1846 16.9218C33.143 16.9218 33.8949 16.625 34.4402 16.0314C34.9855 15.4209 35.2582 14.5559 35.2582 13.4366V5.67752H38.7532Z" fill="white"/>
<path d="M49.9109 5.474C51.5469 5.474 52.8689 6.00823 53.8769 7.07669C54.8849 8.12819 55.3889 9.60369 55.3889 11.5032V19.771H51.9187V11.9865C51.9187 10.8672 51.646 10.0107 51.1007 9.41713C50.5554 8.80658 49.8117 8.50131 48.8698 8.50131C47.9114 8.50131 47.1512 8.80658 46.5894 9.41713C46.044 10.0107 45.7714 10.8672 45.7714 11.9865V19.771H42.3011V5.67752H45.7714V7.43285C46.2341 6.8223 46.8207 6.34742 47.5313 6.00823C48.2584 5.65208 49.0516 5.474 49.9109 5.474Z" fill="white"/>
<path d="M57.9205 12.6734C57.9205 11.2488 58.1932 9.98528 58.7385 8.8829C59.3004 7.78052 60.0605 6.93253 61.019 6.33894C61.9774 5.74535 63.0433 5.44856 64.2165 5.44856C65.1089 5.44856 65.9599 5.65208 66.7696 6.05911C67.5794 6.44918 68.2238 6.97493 68.7031 7.63636V0.945754H72.2229V19.771H68.7031V17.685C68.2734 18.3803 67.6703 18.94 66.8936 19.364C66.1169 19.788 65.2163 20 64.1917 20C63.035 20 61.9774 19.6947 61.019 19.0842C60.0605 18.4736 59.3004 17.6172 58.7385 16.5148C58.1932 15.3954 57.9205 14.115 57.9205 12.6734ZM68.7279 12.7243C68.7279 11.8593 68.5626 11.1216 68.2321 10.511C67.9016 9.88353 67.4554 9.40865 66.8936 9.08642C66.3317 8.74722 65.7286 8.57763 65.0841 8.57763C64.4396 8.57763 63.8447 8.73874 63.2994 9.06098C62.7541 9.38321 62.3079 9.85809 61.9609 10.4856C61.6304 11.0961 61.4651 11.8254 61.4651 12.6734C61.4651 13.5214 61.6304 14.2676 61.9609 14.9121C62.3079 15.5396 62.7541 16.0229 63.2994 16.3621C63.8613 16.7013 64.4562 16.8709 65.0841 16.8709C65.7286 16.8709 66.3317 16.7098 66.8936 16.3876C67.4554 16.0484 67.9016 15.5735 68.2321 14.963C68.5626 14.3355 68.7279 13.5892 68.7279 12.7243Z" fill="white"/>
<path d="M88.5017 12.419C88.5017 12.9278 88.4686 13.3857 88.4025 13.7927H78.3636C78.4462 14.8103 78.7932 15.6074 79.4047 16.1841C80.0161 16.7607 80.768 17.049 81.6603 17.049C82.9493 17.049 83.8664 16.4809 84.4117 15.3446H88.1546C87.758 16.7013 86.9979 17.8207 85.8742 18.7026C84.7505 19.5675 83.3707 20 81.7347 20C80.4127 20 79.2229 19.7032 78.1653 19.1096C77.1242 18.4991 76.3062 17.6426 75.7113 16.5402C75.133 15.4378 74.8438 14.1659 74.8438 12.7243C74.8438 11.2657 75.133 9.98528 75.7113 8.8829C76.2897 7.78052 77.0994 6.93253 78.1405 6.33894C79.1816 5.74535 80.3796 5.44856 81.7347 5.44856C83.0402 5.44856 84.2052 5.73687 85.2297 6.3135C86.2708 6.89014 87.0723 7.71268 87.6341 8.78114C88.2125 9.83265 88.5017 11.0453 88.5017 12.419ZM84.9075 11.4014C84.891 10.4856 84.5687 9.75633 83.9408 9.21362C83.3128 8.65395 82.5444 8.37411 81.6355 8.37411C80.7762 8.37411 80.0491 8.64547 79.4542 9.18818C78.8759 9.71393 78.5206 10.4517 78.3884 11.4014H84.9075Z" fill="white"/>
<path d="M94.6288 7.86532C95.075 7.11909 95.6533 6.53398 96.3639 6.10999C97.091 5.686 97.9173 5.474 98.8427 5.474V9.21362H97.9255C96.8349 9.21362 96.0086 9.47649 95.4468 10.0022C94.9015 10.528 94.6288 11.4438 94.6288 12.7497V19.771H91.1586V5.67752H94.6288V7.86532Z" fill="white"/>
<path d="M106.559 20C105.435 20 104.427 19.7965 103.535 19.3894C102.643 18.9655 101.932 18.3973 101.403 17.685C100.891 16.9727 100.61 16.1841 100.56 15.3191H104.055C104.121 15.8618 104.378 16.3113 104.824 16.6674C105.287 17.0236 105.857 17.2016 106.534 17.2016C107.195 17.2016 107.707 17.066 108.071 16.7946C108.451 16.5233 108.641 16.1756 108.641 15.7516C108.641 15.2937 108.41 14.9545 107.947 14.734C107.501 14.4966 106.782 14.2422 105.791 13.9708C104.766 13.7164 103.923 13.4535 103.262 13.1822C102.618 12.9108 102.056 12.4953 101.577 11.9357C101.114 11.376 100.883 10.6213 100.883 9.67153C100.883 8.89138 101.097 8.17907 101.527 7.5346C101.973 6.89013 102.601 6.38134 103.411 6.00823C104.237 5.63512 105.204 5.44856 106.311 5.44856C107.947 5.44856 109.252 5.87255 110.227 6.72054C111.202 7.55156 111.74 8.67939 111.839 10.104H108.517C108.468 9.54433 108.236 9.10338 107.823 8.78114C107.426 8.44195 106.889 8.27235 106.212 8.27235C105.584 8.27235 105.096 8.39107 104.749 8.62851C104.419 8.86594 104.254 9.19666 104.254 9.62065C104.254 10.0955 104.485 10.4602 104.948 10.7146C105.41 10.952 106.129 11.1979 107.104 11.4523C108.096 11.7067 108.914 11.9696 109.558 12.2409C110.203 12.5123 110.756 12.9363 111.219 13.5129C111.698 14.0726 111.946 14.8188 111.963 15.7516C111.963 16.5657 111.74 17.2949 111.293 17.9394C110.864 18.5839 110.236 19.0927 109.409 19.4658C108.6 19.8219 107.65 20 106.559 20Z" fill="white"/>
<path d="M123.609 19.9491C122.981 19.9491 122.461 19.7541 122.047 19.364C121.651 18.957 121.453 18.4567 121.453 17.8631C121.453 17.2695 121.651 16.7777 122.047 16.3876C122.461 15.9805 122.981 15.777 123.609 15.777C124.22 15.777 124.724 15.9805 125.121 16.3876C125.518 16.7777 125.716 17.2695 125.716 17.8631C125.716 18.4567 125.518 18.957 125.121 19.364C124.724 19.7541 124.22 19.9491 123.609 19.9491Z" fill="#4A90E2"/>
<path d="M136.765 19.771L132.105 13.7673V19.771H128.635V0.945754H132.105V11.6558L136.716 5.67752H141.227L135.179 12.7497L141.277 19.771H136.765Z" fill="#4A90E2"/>
<path d="M156 12.419C156 12.9278 155.967 13.3857 155.901 13.7927H145.862C145.945 14.8103 146.292 15.6074 146.903 16.1841C147.514 16.7607 148.266 17.049 149.159 17.049C150.448 17.049 151.365 16.4809 151.91 15.3446H155.653C155.256 16.7013 154.496 17.8207 153.373 18.7026C152.249 19.5675 150.869 20 149.233 20C147.911 20 146.721 19.7032 145.664 19.1096C144.623 18.4991 143.805 17.6426 143.21 16.5402C142.631 15.4378 142.342 14.1659 142.342 12.7243C142.342 11.2657 142.631 9.98528 143.21 8.8829C143.788 7.78052 144.598 6.93253 145.639 6.33894C146.68 5.74535 147.878 5.44856 149.233 5.44856C150.539 5.44856 151.704 5.73687 152.728 6.3135C153.769 6.89014 154.571 7.71268 155.132 8.78114C155.711 9.83265 156 11.0453 156 12.419ZM152.406 11.4014C152.389 10.4856 152.067 9.75633 151.439 9.21362C150.811 8.65395 150.043 8.37411 149.134 8.37411C148.275 8.37411 147.547 8.64547 146.953 9.18818C146.374 9.71393 146.019 10.4517 145.887 11.4014H152.406Z" fill="#4A90E2"/>
</g>
</svg>
