<svg width="195" height="25" viewBox="0 0 195 25" fill="none" xmlns="http://www.w3.org/2000/svg">
<path d="M9.35726 10.7538H6.35178V24.7138H1.95201V10.7538H0V7.09689H1.95201V6.20651C1.95201 4.04415 2.55104 2.45417 3.7491 1.43659C4.94716 0.419004 6.75458 -0.0579876 9.17136 0.00561175V3.75795C8.11789 3.73675 7.38459 3.91695 6.97147 4.29854C6.55835 4.68013 6.35178 5.36912 6.35178 6.36551V7.09689H9.35726V10.7538Z" fill="#07182C"/>
<path d="M19.9454 25C18.2929 25 16.8057 24.629 15.4837 23.887C14.1617 23.1238 13.1185 22.0532 12.3543 20.6753C11.6106 19.2973 11.2388 17.7073 11.2388 15.9053C11.2388 14.1034 11.621 12.5134 12.3853 11.1354C13.1702 9.75745 14.234 8.69747 15.5766 7.95548C16.9193 7.19229 18.4169 6.8107 20.0694 6.8107C21.7219 6.8107 23.2194 7.19229 24.5621 7.95548C25.9047 8.69747 26.9582 9.75745 27.7225 11.1354C28.5074 12.5134 28.8999 14.1034 28.8999 15.9053C28.8999 17.7073 28.4971 19.2973 27.6915 20.6753C26.9066 22.0532 25.8324 23.1238 24.4691 23.887C23.1265 24.629 21.6186 25 19.9454 25ZM19.9454 21.1205C20.7304 21.1205 21.4637 20.9297 22.1453 20.5481C22.8476 20.1453 23.4053 19.5517 23.8185 18.7673C24.2316 17.9829 24.4382 17.0289 24.4382 15.9053C24.4382 14.2306 24.0044 12.948 23.1368 12.0576C22.2899 11.146 21.2468 10.6902 20.0074 10.6902C18.768 10.6902 17.7249 11.146 16.878 12.0576C16.0517 12.948 15.6386 14.2306 15.6386 15.9053C15.6386 17.5801 16.0414 18.8733 16.847 19.7849C17.6732 20.6753 18.7061 21.1205 19.9454 21.1205Z" fill="#07182C"/>
<path d="M48.4416 7.09689V24.7138H44.0728V22.4878C43.515 23.251 42.7817 23.8552 41.8729 24.3004C40.9847 24.7244 40.0138 24.9364 38.9604 24.9364C37.6177 24.9364 36.43 24.6502 35.3972 24.0778C34.3643 23.4842 33.5484 22.6256 32.9494 21.5021C32.371 20.3573 32.0818 19.0005 32.0818 17.4317V7.09689H36.4196V16.7957C36.4196 18.1949 36.7605 19.2761 37.4421 20.0393C38.1238 20.7813 39.0533 21.1523 40.2307 21.1523C41.4288 21.1523 42.3686 20.7813 43.0503 20.0393C43.7319 19.2761 44.0728 18.1949 44.0728 16.7957V7.09689H48.4416Z" fill="#07182C"/>
<path d="M62.3886 6.8425C64.4336 6.8425 66.0861 7.51029 67.3461 8.84587C68.6061 10.1602 69.2361 12.0046 69.2361 14.379V24.7138H64.8983V14.9832C64.8983 13.584 64.5575 12.5134 63.8759 11.7714C63.1942 11.0082 62.2647 10.6266 61.0873 10.6266C59.8892 10.6266 58.939 11.0082 58.2367 11.7714C57.5551 12.5134 57.2142 13.584 57.2142 14.9832V24.7138H52.8764V7.09689H57.2142V9.29106C57.7926 8.52787 58.5259 7.93428 59.4141 7.51029C60.323 7.06509 61.3145 6.8425 62.3886 6.8425Z" fill="#07182C"/>
<path d="M72.4007 15.8417C72.4007 14.061 72.7415 12.4816 73.4231 11.1036C74.1255 9.72565 75.0756 8.66567 76.2737 7.92368C77.4718 7.18169 78.8041 6.8107 80.2707 6.8107C81.3861 6.8107 82.4499 7.06509 83.4621 7.57389C84.4742 8.06148 85.2798 8.71867 85.8788 9.54545V1.18219H90.2786V24.7138H85.8788V22.1062C85.3418 22.9754 84.5878 23.675 83.617 24.205C82.6461 24.735 81.5204 25 80.2397 25C78.7938 25 77.4718 24.6184 76.2737 23.8552C75.0756 23.092 74.1255 22.0214 73.4231 20.6435C72.7415 19.2443 72.4007 17.6437 72.4007 15.8417ZM85.9098 15.9053C85.9098 14.8242 85.7032 13.902 85.2901 13.1388C84.877 12.3544 84.3193 11.7608 83.617 11.358C82.9147 10.934 82.1607 10.722 81.3551 10.722C80.5495 10.722 79.8059 10.9234 79.1243 11.3262C78.4426 11.729 77.8849 12.3226 77.4511 13.107C77.038 13.8702 76.8314 14.7818 76.8314 15.8417C76.8314 16.9017 77.038 17.8345 77.4511 18.6401C77.8849 19.4245 78.4426 20.0287 79.1243 20.4527C79.8266 20.8767 80.5702 21.0887 81.3551 21.0887C82.1607 21.0887 82.9147 20.8873 83.617 20.4845C84.3193 20.0605 84.877 19.4669 85.2901 18.7037C85.7032 17.9193 85.9098 16.9865 85.9098 15.9053Z" fill="#07182C"/>
<path d="M110.627 15.5238C110.627 16.1597 110.586 16.7321 110.503 17.2409H97.9545C98.0578 18.5129 98.4915 19.5093 99.2558 20.2301C100.02 20.9509 100.96 21.3113 102.075 21.3113C103.687 21.3113 104.833 20.6011 105.515 19.1807H110.193C109.698 20.8767 108.747 22.2758 107.343 23.3782C105.938 24.4594 104.213 25 102.168 25C100.516 25 99.0286 24.629 97.7066 23.887C96.4053 23.1238 95.3828 22.0532 94.6392 20.6753C93.9162 19.2973 93.5547 17.7073 93.5547 15.9053C93.5547 14.0822 93.9162 12.4816 94.6392 11.1036C95.3621 9.72565 96.3743 8.66567 97.6756 7.92368C98.977 7.18169 100.475 6.8107 102.168 6.8107C103.8 6.8107 105.256 7.17109 106.537 7.89188C107.838 8.61267 108.84 9.64085 109.543 10.9764C110.266 12.2908 110.627 13.8066 110.627 15.5238ZM106.134 14.2518C106.114 13.107 105.711 12.1954 104.926 11.517C104.141 10.8174 103.181 10.4676 102.044 10.4676C100.97 10.4676 100.061 10.8068 99.3178 11.4852C98.5948 12.1424 98.1507 13.0646 97.9855 14.2518H106.134Z" fill="#07182C"/>
<path d="M118.286 9.83165C118.844 8.89886 119.567 8.16748 120.455 7.63749C121.364 7.10749 122.397 6.8425 123.553 6.8425V11.517H122.407C121.044 11.517 120.011 11.8456 119.308 12.5028C118.627 13.16 118.286 14.3048 118.286 15.9371V24.7138H113.948V7.09689H118.286V9.83165Z" fill="#07182C"/>
<path d="M133.199 25C131.794 25 130.534 24.7456 129.419 24.2368C128.303 23.7068 127.415 22.9966 126.754 22.1062C126.114 21.2159 125.762 20.2301 125.7 19.1489H130.069C130.152 19.8273 130.472 20.3891 131.03 20.8343C131.608 21.2795 132.321 21.5021 133.168 21.5021C133.994 21.5021 134.634 21.3325 135.089 20.9933C135.564 20.6541 135.801 20.2195 135.801 19.6895C135.801 19.1171 135.512 18.6931 134.934 18.4175C134.376 18.1207 133.478 17.8027 132.238 17.4635C130.957 17.1455 129.904 16.8169 129.078 16.4777C128.272 16.1385 127.57 15.6192 126.971 14.9196C126.392 14.22 126.103 13.2766 126.103 12.0894C126.103 11.1142 126.372 10.2238 126.909 9.41825C127.467 8.61267 128.251 7.97668 129.264 7.51029C130.296 7.0439 131.505 6.8107 132.889 6.8107C134.934 6.8107 136.566 7.34069 137.784 8.40067C139.003 9.43946 139.674 10.8492 139.798 12.63H135.646C135.584 11.9304 135.295 11.3792 134.779 10.9764C134.283 10.5524 133.612 10.3404 132.765 10.3404C131.98 10.3404 131.371 10.4888 130.937 10.7856C130.524 11.0824 130.317 11.4958 130.317 12.0258C130.317 12.6194 130.606 13.0752 131.185 13.3932C131.763 13.69 132.662 13.9974 133.88 14.3154C135.12 14.6334 136.142 14.962 136.948 15.3012C137.753 15.6404 138.445 16.1703 139.024 16.8911C139.623 17.5907 139.933 18.5235 139.953 19.6895C139.953 20.7071 139.674 21.6187 139.117 22.4242C138.58 23.2298 137.795 23.8658 136.762 24.3322C135.75 24.7774 134.562 25 133.199 25Z" fill="#07182C"/>
<path d="M154.511 24.9364C153.726 24.9364 153.076 24.6926 152.559 24.205C152.063 23.6962 151.816 23.0708 151.816 22.3288C151.816 21.5869 152.063 20.9721 152.559 20.4845C153.076 19.9757 153.726 19.7213 154.511 19.7213C155.276 19.7213 155.906 19.9757 156.401 20.4845C156.897 20.9721 157.145 21.5869 157.145 22.3288C157.145 23.0708 156.897 23.6962 156.401 24.205C155.906 24.6926 155.276 24.9364 154.511 24.9364Z" fill="#4A90E2"/>
<path d="M170.957 24.7138L165.132 17.2091V24.7138H160.794V1.18219H165.132V14.5698L170.895 7.09689H176.534L168.974 15.9371L176.596 24.7138H170.957Z" fill="#4A90E2"/>
<path d="M195 15.5238C195 16.1597 194.959 16.7321 194.876 17.2409H182.327C182.431 18.5129 182.864 19.5093 183.629 20.2301C184.393 20.9509 185.333 21.3113 186.448 21.3113C188.06 21.3113 189.206 20.6011 189.888 19.1807H194.566C194.07 20.8767 193.12 22.2758 191.716 23.3782C190.311 24.4594 188.586 25 186.541 25C184.889 25 183.402 24.629 182.08 23.887C180.778 23.1238 179.756 22.0532 179.012 20.6753C178.289 19.2973 177.928 17.7073 177.928 15.9053C177.928 14.0822 178.289 12.4816 179.012 11.1036C179.735 9.72565 180.747 8.66567 182.049 7.92368C183.35 7.18169 184.847 6.8107 186.541 6.8107C188.173 6.8107 189.629 7.17109 190.91 7.89188C192.211 8.61267 193.213 9.64085 193.916 10.9764C194.639 12.2908 195 13.8066 195 15.5238ZM190.507 14.2518C190.487 13.107 190.084 12.1954 189.299 11.517C188.514 10.8174 187.553 10.4676 186.417 10.4676C185.343 10.4676 184.434 10.8068 183.691 11.4852C182.968 12.1424 182.524 13.0646 182.358 14.2518H190.507Z" fill="#4A90E2"/>
</svg>
